<svg width="513" height="513" viewBox="0 0 513 513" fill="none" xmlns="http://www.w3.org/2000/svg">
<g opacity="0.9">
<path fill-rule="evenodd" clip-rule="evenodd" d="M199.347 113.021C176.947 115.421 137.347 128.521 122.847 137.021C98.3465 167.855 53.3465 254.021 64.8465 352.521C90.3465 371.021 135.347 395.521 161.847 400.521C169.347 393.021 179.147 377.721 182.347 368.521C180.721 366.625 172.574 362.907 165.007 359.453C158.611 356.534 152.629 353.804 151.347 352.521L158.347 346.521C175.847 357.021 225.847 368.521 255.847 368.521C285.847 368.521 335.847 357.021 353.347 346.521L360.347 352.521C359.064 353.804 353.082 356.534 346.686 359.453L346.685 359.453C339.118 362.907 330.972 366.625 329.347 368.521C332.547 377.721 342.347 393.021 349.847 400.521C376.347 395.521 421.346 371.021 446.846 352.521C458.346 254.021 413.346 167.855 388.846 137.021C374.346 128.521 334.747 115.421 312.347 113.021C310.347 112.688 305.047 116.121 299.847 132.521C296.255 130.277 267.922 130.451 258.328 130.509L258.327 130.509C257.237 130.516 256.389 130.521 255.847 130.521C250.347 130.521 223.847 130.521 211.847 132.521C206.647 116.121 201.347 112.688 199.347 113.021ZM156.847 268.521C156.847 248.915 172.74 233.021 192.347 233.021C211.953 233.021 227.847 248.915 227.847 268.521V274.521C227.847 294.127 211.953 310.021 192.347 310.021C172.74 310.021 156.847 294.127 156.847 274.521V268.521ZM319.347 233.021C299.74 233.021 283.847 248.915 283.847 268.521V274.521C283.847 294.127 299.74 310.021 319.347 310.021C338.953 310.021 354.847 294.127 354.847 274.521V268.521C354.847 248.915 338.953 233.021 319.347 233.021Z" fill="#404EED"/>
</g>
</svg>
