<svg width="513" height="512" viewBox="0 0 513 512" fill="none" xmlns="http://www.w3.org/2000/svg">
<path fill-rule="evenodd" clip-rule="evenodd" d="M256.153 68C152.324 68 68.1534 152.17 68.1534 256V260C68.1534 339.533 117.541 407.532 187.321 435H198.653C206.653 434.6 209.153 433 209.153 429.5V391C161.2 397.713 154.178 384.651 142.216 362.399C141.705 361.449 141.186 360.483 140.653 359.5C139.329 351.553 132.671 346.834 127 342.814C121.968 339.247 117.713 336.232 118.653 332C125.153 322.5 146.987 336.833 152.654 344.5C169.453 376.1 198.32 371 210.653 364.5C209.153 355.5 217.987 343.167 221.653 338.5C188.053 339.3 164.654 321 155.653 309.5C121.254 259.5 141.32 213 155.653 196C148.053 178.4 154.153 155.667 158.153 146.5C175.353 143.3 199.987 158.167 210.153 166C215.753 161.2 243.487 159.667 256.654 159.5C269.82 159.667 297.554 161.2 303.154 166C313.32 158.167 337.954 143.3 355.154 146.5C359.154 155.667 365.254 178.4 357.654 196C371.987 213 392.054 259.5 357.654 309.5C348.654 321 325.254 339.3 291.654 338.5C295.32 343.167 304.154 355.5 302.654 364.5C303.154 369.167 304.154 381 304.154 391V429.5C304.154 433 306.654 434.6 314.654 435H324.986C394.766 407.532 444.153 339.533 444.153 260V256C444.153 152.17 359.983 68 256.153 68Z" fill="white"/>
</svg>
