<svg width="512" height="512" viewBox="0 0 512 512" fill="none" xmlns="http://www.w3.org/2000/svg">
<path d="M166.172 485L174.7 430.913L155.705 430.473H65L128.035 31.3635C128.231 30.1586 128.867 29.0352 129.796 28.2374C130.725 27.4396 131.916 27 133.155 27H286.096C336.869 27 371.909 37.5504 390.203 58.3745C398.78 68.1435 404.242 78.352 406.883 89.5863C409.655 101.374 409.704 115.458 406.997 132.635L406.802 133.888V144.895L415.378 149.747C422.601 153.573 428.34 157.953 432.743 162.967C440.08 171.32 444.825 181.935 446.83 194.521C448.901 207.465 448.216 222.867 444.825 240.305C440.912 260.363 434.585 277.834 426.041 292.129C418.182 305.301 408.171 316.225 396.285 324.692C384.937 332.735 371.452 338.841 356.207 342.748C341.435 346.591 324.592 348.528 306.118 348.528H294.216C285.704 348.528 277.438 351.589 270.948 357.076C264.443 362.677 260.138 370.329 258.817 378.698L257.921 383.566L242.855 478.894L242.17 482.395C241.991 483.502 241.681 484.056 241.224 484.43C240.817 484.772 240.23 485 239.659 485H166.172Z" fill="#253B80"/>
<path d="M423.791 137C423.335 139.895 422.813 142.854 422.226 145.894C402.065 248.593 333.089 284.072 244.994 284.072H200.14C189.366 284.072 180.288 291.833 178.609 302.377L155.644 446.877L149.141 487.837C148.049 494.758 153.428 501 160.469 501H240.023C249.444 501 257.446 494.208 258.929 484.991L259.712 480.981L274.69 386.674L275.652 381.499C277.119 372.25 285.138 365.458 294.558 365.458H306.456C383.533 365.458 443.871 334.411 461.506 244.567C468.873 207.035 465.059 175.696 445.566 153.656C439.666 147.01 432.348 141.495 423.791 137Z" fill="#179BD7"/>
<path d="M401.925 127.184C398.847 126.294 395.671 125.485 392.414 124.757C389.14 124.045 385.785 123.414 382.332 122.864C370.248 120.922 357.007 120 342.821 120H223.081C220.134 120 217.332 120.663 214.824 121.861C209.303 124.498 205.199 129.692 204.205 136.05L178.733 296.324L178 301C179.678 290.451 188.749 282.685 199.515 282.685H244.336C332.365 282.685 401.29 247.171 421.436 144.431C422.039 141.389 422.544 138.428 423 135.532C417.902 132.847 412.381 130.549 406.436 128.591C404.971 128.106 403.456 127.637 401.925 127.184Z" fill="#222D65"/>
<path d="M204.749 136.399C205.744 129.998 209.853 124.77 215.38 122.131C217.907 120.926 220.695 120.258 223.646 120.258H343.515C357.716 120.258 370.972 121.187 383.069 123.141C386.526 123.695 389.885 124.33 393.162 125.047C396.423 125.78 399.602 126.594 402.684 127.49C404.216 127.946 405.732 128.418 407.216 128.891C413.167 130.861 418.694 133.191 423.798 135.878C429.798 97.6508 423.749 71.623 403.059 48.0546C380.249 22.1082 339.08 11 286.401 11H133.467C122.706 11 113.527 18.8181 111.864 29.454L48.1629 432.82C46.9074 440.801 53.0705 448 61.1248 448H155.543L179.249 297.746L204.749 136.399Z" fill="#253B80"/>
</svg>
