<svg width="513" height="512" viewBox="0 0 513 512" fill="none" xmlns="http://www.w3.org/2000/svg">
<path opacity="0.67" fill-rule="evenodd" clip-rule="evenodd" d="M256.153 158C229.653 156 181.453 165 152.653 189C108.653 154.5 49.6532 211.5 104.653 253C97.6533 292 112.953 375.2 256.153 384L260.153 384C403.354 375.2 418.653 292 411.653 253C466.653 211.5 407.653 154.5 363.653 189C335.153 166.5 302.653 162 275.653 160.5L293.653 103L344.653 114C350.153 139.5 391.253 157.6 405.653 114C410.153 92.5 379.853 63.7 350.653 94.5L286.153 80.5C282.82 79.5 274.353 87.4 265.153 129L256.153 158ZM312.153 226C298.346 226 287.153 237.193 287.153 251C287.153 264.807 298.346 276 312.153 276C325.96 276 337.153 264.807 337.153 251C337.153 237.193 325.96 226 312.153 226ZM179.153 251C179.153 237.193 190.346 226 204.153 226C217.96 226 229.153 237.193 229.153 251C229.153 264.807 217.96 276 204.153 276C190.346 276 179.153 264.807 179.153 251ZM210.333 308.904C206.415 306.32 201.142 307.401 198.558 311.32C195.973 315.239 197.054 320.511 200.973 323.096C226.053 339.638 270.583 354.754 315.562 322.94C319.394 320.229 320.304 314.924 317.593 311.092C314.882 307.259 309.577 306.35 305.745 309.06C268.723 335.246 232.253 323.362 210.333 308.904Z" fill="#FC3F17"/>
</svg>
