<svg width="513" height="512" viewBox="0 0 513 512" fill="none" xmlns="http://www.w3.org/2000/svg">
<path fill-rule="evenodd" clip-rule="evenodd" d="M256.153 24C128.023 24 24.1533 127.87 24.1533 256C24.1533 384.13 128.023 488 256.153 488C384.283 488 488.153 384.13 488.153 256C488.153 127.87 384.283 24 256.153 24ZM134.247 274.541C191.982 261.442 277.394 250.958 366.447 302.047C375.31 307.131 386.616 304.068 391.7 295.206C396.784 286.343 393.722 275.037 384.859 269.953C283.913 212.042 187.325 224.558 126.06 238.459C116.096 240.719 109.851 250.629 112.112 260.593C114.373 270.557 124.283 276.802 134.247 274.541ZM139.571 340.38L138.013 340.705C130.445 342.284 123.028 337.429 121.449 329.86C119.869 322.291 124.724 314.875 132.293 313.295L134.473 312.84C192.078 300.806 266.539 285.251 358.746 339.429C365.412 343.346 367.641 351.926 363.724 358.592C359.807 365.259 351.227 367.487 344.561 363.571C261.695 314.881 196.309 328.533 139.571 340.38ZM123.577 202.668C198.048 181.323 315.158 183.278 394.3 229.559C404.55 235.554 417.719 232.104 423.713 221.853C429.707 211.603 426.257 198.435 416.007 192.441C324.148 138.722 194.258 137.677 111.729 161.332C100.315 164.604 93.7139 176.509 96.9855 187.924C100.257 199.338 112.163 205.939 123.577 202.668Z" fill="#1EDA62"/>
</svg>
