<svg width="513" height="512" viewBox="0 0 513 512" fill="none" xmlns="http://www.w3.org/2000/svg">
<g clip-path="url(#clip0_1_53)">
<mask id="mask0_1_53" style="mask-type:alpha" maskUnits="userSpaceOnUse" x="0" y="0" width="513" height="512">
<rect x="0.0322266" width="512" height="512" rx="256" fill="url(#paint0_linear_1_53)"/>
</mask>
<g mask="url(#mask0_1_53)">
<rect x="0.0322266" width="512" height="512" rx="256" fill="url(#paint1_linear_1_53)"/>
<rect x="291.032" y="141" width="98" height="98" rx="49" fill="white"/>
<rect x="-38.2937" y="219.168" width="289.711" height="81.1463" rx="40.5731" transform="rotate(23 -38.2937 219.168)" fill="white"/>
<path fill-rule="evenodd" clip-rule="evenodd" d="M340.532 93C286.684 93 243.032 136.652 243.032 190.5C243.032 244.348 286.684 288 340.532 288C394.38 288 438.032 244.348 438.032 190.5C438.032 136.652 394.38 93 340.532 93ZM340.032 125C304.133 125 275.032 154.101 275.032 190C275.032 225.899 304.133 255 340.032 255C375.93 255 405.032 225.899 405.032 190C405.032 154.101 375.93 125 340.032 125Z" fill="white"/>
<path d="M243.532 190L274.849 211.523C285.317 218.718 287.971 233.037 280.776 243.506L229.774 317.714L179.502 283.164L243.532 190Z" fill="white"/>
<path d="M282.345 248.254C293.135 240.557 308.123 243.065 315.82 253.856L339.757 287.415L248.455 352.54L210.581 299.443L282.345 248.254Z" fill="white"/>
<path fill-rule="evenodd" clip-rule="evenodd" d="M177.532 283C138.044 283 106.032 315.012 106.032 354.5C106.032 393.988 138.044 426 177.532 426C217.021 426 249.032 393.988 249.032 354.5C249.032 315.012 217.021 283 177.532 283ZM177.032 299C146.657 299 122.032 323.624 122.032 354C122.032 384.376 146.657 409 177.032 409C207.408 409 232.032 384.376 232.032 354C232.032 323.624 207.408 299 177.032 299Z" fill="white"/>
</g>
</g>
<defs>
<linearGradient id="paint0_linear_1_53" x1="256.032" y1="0" x2="256.032" y2="512" gradientUnits="userSpaceOnUse">
<stop offset="0.427467" stop-color="#0B1744"/>
<stop offset="1" stop-color="#0B87B8"/>
</linearGradient>
<linearGradient id="paint1_linear_1_53" x1="256.032" y1="0" x2="256.032" y2="512" gradientUnits="userSpaceOnUse">
<stop offset="0.427467" stop-color="#0B1744"/>
<stop offset="1" stop-color="#0B87B8"/>
</linearGradient>
<clipPath id="clip0_1_53">
<rect width="512" height="512" fill="white" transform="translate(0.15332)"/>
</clipPath>
</defs>
</svg>
