<svg width="513" height="512" viewBox="0 0 513 512" fill="none" xmlns="http://www.w3.org/2000/svg">
<path d="M405.081 111.767C369.198 104.873 265.087 105.568 217.515 106.778C199.754 106.052 135.509 109.299 105.606 111.013C87.9359 112.827 50.4215 121.808 47.1594 170.433C39.4572 218.967 44.4409 324.954 48.9717 348.694C49.8778 367.138 67.0946 396.774 100.169 399.042C130.676 402.317 195.767 406.6 214.796 405.693C244.699 407.054 353.884 403.68 410.518 399.796C443.592 397.528 460.361 366.231 463.079 349.448C468.063 326.769 471.229 219.721 463.526 171.187C460.264 122.562 422.751 113.582 405.081 111.767Z" fill="#FF0000"/>
<path d="M212.077 319.511V192.96L323.533 256.009L212.077 319.511Z" fill="#D9D9D9"/>
</svg>
